HIERARCHY
ROOT Spine
{
    OFFSET 0.0 0.0 -0.0
    CHANNELS 6 Xposition Yposition Zposition Zrotation Xrotation Yrotation
    JOINT ShoulderCenter
    {
        OFFSET 0.0 32.65574264526367 0.0
        CHANNELS 3 Zrotation Xrotation Yrotation
        JOINT LeftShoulder
        {
            OFFSET 18.40671157836914 0.0 0.0
            CHANNELS 3 Zrotation Xrotation Yrotation
            JOINT LeftElbow
            {
                OFFSET 32.48051071166992 0.0 0.0
                CHANNELS 3 Zrotation Xrotation Yrotation
                JOINT LeftHand
                {
                    OFFSET 33.902774810791016 0.0 0.0
                    CHANNELS 3 Zrotation Xrotation Yrotation
                    End Site
                    {
                        OFFSET 13.561110496520996 0.0 0.0
                    }
                }
            }
        }
        JOINT RightShoulder
        {
            OFFSET -18.40671157836914 0.0 0.0
            CHANNELS 3 Zrotation Xrotation Yrotation
            JOINT RightElbow
            {
                OFFSET -32.48051071166992 0.0 0.0
                CHANNELS 3 Zrotation Xrotation Yrotation
                JOINT RightHand
                {
                    OFFSET -33.902774810791016 0.0 0.0
                    CHANNELS 3 Zrotation Xrotation Yrotation
                    End Site
                    {
                        OFFSET -13.561110496520996 0.0 0.0
                    }
                }
            }
        }
        End Site
        {
            OFFSET 0.0 13.062296867370605 0.0
        }
    }
    JOINT LeftHip
    {
        OFFSET 17.149095450070135 -17.149095450070135 0.0
        CHANNELS 3 Zrotation Xrotation Yrotation
        JOINT LeftKnee
        {
            OFFSET 0.0 -42.42683410644531 0.0
            CHANNELS 3 Zrotation Xrotation Yrotation
            JOINT LeftFoot
            {
                OFFSET 0.0 -47.721031188964844 0.0
                CHANNELS 3 Zrotation Xrotation Yrotation
                End Site
                {
                    OFFSET 0.0 0.0 19.08841323852539
                }
            }
        }
    }
    JOINT RightHip
    {
        OFFSET -17.149095450070135 -17.149095450070135 0.0
        CHANNELS 3 Zrotation Xrotation Yrotation
        JOINT RightKnee
        {
            OFFSET 0.0 -42.42683410644531 0.0
            CHANNELS 3 Zrotation Xrotation Yrotation
            JOINT RightFoot
            {
                OFFSET 0.0 -47.721031188964844 0.0
                CHANNELS 3 Zrotation Xrotation Yrotation
                End Site
                {
                    OFFSET 0.0 0.0 19.08841323852539
                }
            }
        }
    }
}
MOTION
Frames: 14
Frame Time: 0.03333333333333333
-2.8999998569488525 15.000000953674316 21.899999618530273 0.705143410219216 3.696770724749517 -4.400893803410109 -8.157093404807714e-09 7.743398357233055e-08 0.8189115327866116 164.30529535507162 31.785204229249306 157.18670492918568 -1.1973274589044938e-06 1.7680528251297342e-06 36.3142422778196 0.0 0.0 -1.5902773407317584e-15 -156.98274773432516 24.28942134594416 -163.25567796552068 -2.1452413924739683e-06 -3.910041346200045e-06 -36.39039211409043 7.951386703658792e-16 -1.987846675914698e-16 1.5902773407317584e-15 11.131446076808327 -0.1168212171772359 -36.52961049381563 8.293452712333226 1.9561263773324475 -18.56293757572344 0.0 0.0 2.584200678689108e-15 -9.750893453694433 -7.144173958457125 6.7235443771297145 -5.895115139602052 2.690823619270268 23.454779628229673 1.2069275033730902e-33 -3.975693351829395e-16 3.4787316828507205e-16
-2.8999998569488525 15.000000953674316 22.0 0.7051434112054895 4.047722827599314 -4.782499977018027 -1.529945562504943e-08 -6.846219131004297e-07 0.8805929904500451 167.11809021953488 33.7611487378779 155.0852810508292 -2.2698534434640778e-06 4.338491225725044e-06 34.17238207184415 -3.975693351829396e-16 9.93923337957349e-17 1.5902773407317584e-15 -160.89584842416858 29.951163174278385 -160.75895785425126 1.1645091004673481e-07 -1.0979747936272593e-06 -33.13994886200458 7.95138670365879e-16 3.180554681463516e-15 7.95138670365879e-16 11.188070083254361 -0.3776402812214592 -36.24525167263391 8.304607020604582 1.9819319519938148 -20.17334239268352 0.0 0.0 5.9635400277440935e-15 -9.795317824036326 -7.553744650665839 4.8630538433140185 -5.769050207504528 2.339878238323273 20.395466515873565 1.551763932908259e-33 3.975693351829396e-16 -4.472655020808071e-16
-3.0 15.09999942779541 22.100000381469727 0.3536732072232572 4.2363131310701165 -5.389245075374643 -2.3653186688697714e-08 1.9265391307313555e-07 1.034619853015172 170.30446449206062 36.54982229426888 152.72834463195554 1.175831628614799e-06 -3.2376000096313547e-06 32.374160789245174 -1.9878466759146975e-16 -6.3611093629270335e-15 7.951386703658792e-16 -164.08478404574598 35.866328254895016 -159.00162778192626 -8.349059919343895e-07 -1.4561616419427843e-06 -29.584161686370894 -5.963540027744094e-16 2.4848083448933722e-17 3.975693351829396e-16 11.659851370178268 -0.1292723966019048 -36.195109498457136 8.394495392144936 1.639859824129385 -17.68446262531582 3.1805546814635176e-15 1.5902773407317588e-15 -4.572047354603806e-15 -9.315550675453409 -8.22137789749825 0.07256134056495261 -5.894611114422346 2.318709200986418 20.744300609336918 0.0 0.0 1.3417965062424209e-15
-2.8999998569488525 15.000000953674316 22.100000381469727 0.3525850487055141 4.573832022594564 -5.675661412436817 -9.993376576688308e-09 3.322367913510165e-07 0.8322548410391251 173.38868129421692 40.99460190091219 150.15801352073848 1.8791017131424162e-06 -1.0729605815049153e-06 30.799593698104264 -3.9756933518293945e-16 6.361109362927032e-15 -7.95138670365879e-16 -167.71130053554253 42.350881385196686 -157.19091211423122 -2.3462470645226312e-07 -1.8747985456560117e-06 -26.842660376964126 -1.5902773407317588e-15 4.969616689786746e-17 6.896728590703373e-34 11.565302573897858 -0.413490268002312 -35.969403354772794 8.608776747993325 1.8506214566454178 -20.50101117212145 -6.361109362927033e-15 -2.648343778830095e-31 4.770832022195274e-15 -9.270553480440045 -8.608343666985624 -0.7770489896062127 -5.972024309586812 1.9788561005948981 17.526979968796205 0.0 0.0 4.224174186318734e-16
-2.8999998569488525 15.000000953674316 22.0 0.3525850229673221 4.748959648673715 -6.338341784817134 -1.0587326178071193e-08 -1.3646277197798401e-07 1.3414122852931865 176.46963826592264 46.2667865429452 148.06344363655265 -3.810403246331648e-07 -2.224424955672191e-06 28.64517458262432 -3.618502152250974e-16 -3.5308691051525812e-34 1.1181637552020177e-16 -172.0768955368182 48.990170312273605 -154.35114682907673 -2.4209601949911133e-06 -2.647954755362259e-06 -24.163003942212555 0.0 0.0 0.0 11.58879290083055 -0.45112509064684875 -36.699477506879894 8.561010741414396 2.061744676239264 -22.395564102745194 9.655420026984722e-32 1.5902773407317588e-15 -6.957463365701444e-15 -9.414708709579829 -9.04548114864186 -2.067079337668005 -5.607934218310389 2.0890036759061474 18.054767683499268 0.0 0.0 2.236327510404035e-16
-2.8999998569488525 15.000000953674316 22.0 0.17629441053353867 4.749026964227822 -6.630410039037337 -2.22783080838252e-08 1.278025218680442e-07 1.3237365334457116 178.73658259811464 49.350395397909416 146.04054609487545 1.3630275527140184e-06 -1.1579624712659174e-06 27.188997817714036 0.0 0.0 -3.975693351829396e-16 -177.58786926892975 57.48356433244494 -150.22144373900542 1.6212726713883815e-07 -4.263275984726791e-06 -22.38998822756504 0.0 6.361109362927033e-15 0.0 11.800039844008433 -0.633842969663205 -36.46832329835022 8.264570075170653 2.4979140170593355 -27.104033603685032 0.0 0.0 3.379339349054986e-15 -9.191371957102877 -9.075543133156096 -2.5780874126788147 -5.350156774436425 1.8172434182374422 14.271239652544358 0.0 0.0 -2.7332891793827095e-16
-2.8999998569488525 15.000000953674316 21.899999618530273 0.17629441738239324 4.749030643110708 -7.28523247416862 -1.5083813487413626e-08 1.3705338251667746e-07 1.9526354899379703 -179.92045808312176 52.453817086714466 144.91011120548325 -1.6807396505781685e-06 4.125448294138609e-06 25.46253815376202 -1.1927080055488188e-15 0.0 0.0 177.0786603290635 62.91170488046406 -145.67581657949438 -2.7972962690049596e-06 -1.7290706634160555e-06 -21.328525402942553 0.0 -2.4848083448933722e-17 0.0 11.798933264680363 -0.6413621701605141 -36.780104686974056 8.171300821856118 2.954044597554502 -31.03934705173448 1.5902773407317588e-15 1.5902773407317588e-15 -2.3854160110976384e-15 -9.072016998505765 -9.315220914424007 -3.3380031108287778 -5.256748442391303 1.7299062024788128 12.808164326153474 0.0 0.0 3.9756933518293955e-16
-2.8999998569488525 15.000000953674316 21.799999237060547 0.1768385095455499 4.587956865084062 -7.668579830437401 6.662167123664536e-09 -3.817902161717275e-07 2.164718705008688 -178.7693220184969 54.644101831871716 143.73820088970592 5.64956548153679e-07 -6.109584523294928e-06 23.91561140755547 -3.975693351829396e-16 6.3611093629270335e-15 2.2069531490250793e-32 175.8940796220094 64.0284820184552 -144.86626028837063 1.2195601539642008e-06 4.237679319030756e-06 -20.742555994628606 0.0 0.0 0.0 11.845831511635318 -0.6607576713865819 -36.63160676610497 8.062344603531633 3.257314112664746 -35.40657268016914 1.5902773407317584e-15 8.276074308844047e-32 5.9635400277440935e-15 -9.146847515990089 -9.367934680524863 -4.689054888184671 -5.0398848550342255 1.6447026112344598 11.956086703952316 6.465683053784412e-35 -9.93923337957349e-17 7.454425034680117e-17
-2.8999998569488525 14.90000057220459 21.69999885559082 2.529827072120472e-08 4.398709233012371 -7.656612971406771 2.1704082613028876e-08 -3.1213657966551735e-07 1.8536745658365341 -178.5409846076276 55.035834155938744 143.4794857103652 1.777922805724162e-06 -3.5907530864227273e-06 22.19940857271056 0.0 6.361109362927035e-15 0.0 176.88558035506563 63.87037225757727 -146.03620831884595 5.275710007027808e-07 -1.1526754379194633e-06 -20.7294642458602 -1.5902773407317584e-15 -6.3611093629270335e-15 -8.827812596100317e-32 12.014377166490405 -0.5857490383387566 -36.83254259167563 7.86996370909904 3.461758474049238 -35.08603437342463 8.276074308844047e-33 -1.5902773407317582e-15 5.963540027744093e-16 -9.143558664512671 -9.038982309026311 -3.0331109328307213 -4.813950549838912 1.5620026139863212 11.212643058751892 8.620910738379216e-35 9.93923337957349e-17 -9.93923337957349e-17
-2.8999998569488525 14.90000057220459 21.600000381469727 1.964852667735083e-08 4.048027789793212 -8.289830004570941 4.963594404407702e-09 -1.307140145332448e-07 2.62913044545118 -178.48349192935737 55.93098721078315 144.3337531422209 6.945811883438583e-07 -2.5799968716539713e-06 20.36483478061775 -3.9756933518293955e-16 -5.517382872562698e-33 1.5902773407317582e-15 177.71076017240205 62.55192655262176 -147.67672156912977 -1.8429043095252543e-06 -5.294973937588097e-06 -20.37268501564715 0.0 0.0 0.0 11.942866913072162 -0.12350835404682707 -38.41127717264986 7.801500237144039 4.007722267490076 -37.58219479642237 0.0 0.0 -6.7586786981099735e-15 -9.085460870916572 -8.796380974145789 -2.1760364469652753 -4.678640275789387 1.4807649720379292 10.191148552205433 -3.1805546814635168e-15 6.2120208622334304e-18 2.4848083448933725e-17
-2.8999998569488525 14.90000057220459 21.600000381469727 -0.17629360011954076 3.5214367999424967 -8.912429392536753 2.4861320862356334e-09 -1.2495188459444991e-07 3.0949761543723207 -176.52391849723992 56.786553720896265 144.01674732083973 1.2265178809487615e-06 -5.6035243164018395e-06 19.128397575051174 0.0 0.0 0.0 178.54144540704053 61.85441456191632 -150.05671686660645 2.386675588516762e-06 3.2085012763799216e-06 -20.201816869235067 -4.310455369189608e-35 -3.106010431116715e-18 -1.590277340731758e-15 11.863741367472224 0.7854234522475716 -39.622946122745354 7.916992372939993 4.104861833364448 -35.60106360914471 1.5902773407317584e-15 -1.3793457181406746e-32 -9.93923337957349e-16 -8.882927520174126 -8.355149114878108 -1.4561217061665206 -4.658608083922295 1.3665338357289354 9.39687207487844 -1.3470173028717525e-36 6.2120208622334304e-18 2.4848083448933722e-17
-2.8999998569488525 14.90000057220459 21.5 -0.5288686157730265 3.16992995254745 -9.228256292264298 1.1318114366736784e-08 -8.210996028710949e-08 3.550883101948946 -174.7796654356621 57.185283492662634 145.02644080398267 -9.486895858744069e-08 4.0173749137708625e-06 18.460633514009768 3.975693351829396e-16 4.969616689786745e-17 1.5902773407317584e-15 178.90340621317927 60.45193471015892 -152.41704385024963 -4.281990433881838e-07 -2.2759596408961215e-06 -20.241144082049168 -7.951386703658792e-16 0.0 0.0 12.15480602334995 1.3905682034056013 -41.28378050331074 7.895851949350905 4.290247589934046 -34.99322850603888 -1.5902773407317588e-15 -1.9310840053969444e-32 1.391492673140289e-15 -8.689302993306361 -7.892093189218474 0.48556683884206625 -4.355546216561737 1.3918932898584435 9.441930387188892 -1.5902773407317582e-15 -6.896728590703373e-34 4.9696166897867443e-17
-2.8999998569488525 14.90000057220459 21.399999618530273 -0.8814036158833082 2.818107785143244 -9.18660959515292 1.0689009263071335e-07 -1.9061191992738976e-07 3.6834201999294507 -173.37291634478473 57.43264555568503 147.1249523044609 -1.153489607848774e-06 -8.179115954319502e-07 18.08658637939742 -7.95138670365879e-16 5.517382872562698e-33 -7.95138670365879e-16 177.52047320179776 60.84077703846092 -154.1178524732722 -5.992700960998e-08 -9.439327928371313e-07 -20.213999696367313 0.0 6.336261279478098e-15 0.0 12.53370441936405 2.0632662432657036 -43.44266127896724 7.769750769830416 4.178131697676378 -31.425328197758567 1.5902773407317584e-15 5.517382872562698e-32 3.975693351829396e-15 -8.416361463628384 -7.500815947048253 2.536248651973787 -4.264883326762094 1.675170043686826 11.434080700564664 -1.5902773407317584e-15 -1.987846675914698e-16 7.578665451924786e-16
-2.8999998569488525 14.90000057220459 21.19999885559082 -1.0544045447189379 2.6340089221502057 -9.235907948100465 2.9428038345415664e-08 1.5960212426657233e-07 3.726143293719834 -172.97342226781248 55.69446763336539 150.0404189262195 -3.071973656767541e-07 4.259067966650662e-06 18.819381236320393 -2.2069531490250793e-32 -6.361109362927035e-15 -3.975693351829397e-16 177.4079910425754 59.8439558618879 -157.33865069383768 -9.320400551665947e-07 -2.233751989018928e-06 -20.661648235420486 3.975693351829396e-16 2.4848083448933725e-17 -8.620910738379216e-35 12.696638157673926 2.1488098375754934 -43.690634268128754 7.746960623300183 4.21557136001 -31.266494736254714 -1.5902773407317582e-15 -1.5902773407317584e-15 9.14409470920761e-15 -8.377325860123905 -7.456102762722658 2.926081094714998 -4.164194120619383 1.8411300088588414 12.937479259976973 1.5902773407317584e-15 -9.93923337957349e-17 -3.60297210009539e-16
